# xmcd
#
# Track frame offsets: 
#        150
#        9121
#        23454
#        33247
#        52419
#        62404
#        77468
#        90349
#        106770
#        119833
#        133323
#        146557
#        160792
#        174410
#        189060
#        203005
#        216280
#        230151
#        244255
#        259029
#        271548
#
# Disc length: 3834 seconds
#
# Revision: 0
# Processed by: cddbd v1.5.2PL0 Copyright (c) Steve Scherf et al.
# Submitted via: ExactAudioCopyFreeDBPlugin 1.0
#
DISCID=100ef815
DTITLE=Ray Charles - Genius - The Ultimate Collection
DYEAR=2009
DGENRE=Blues
TTITLE0=Hit The Road Jack
TTITLE1=What'd I Say (Part 1)
TTITLE2=Busted
TTITLE3=I Can't Stop Loving You
TTITLE4=Sticks And Stones
TTITLE5=Drown In My Tears
TTITLE6=Unchain My Heart
TTITLE7=Georgia On My Mind
TTITLE8=I've Got A Woman
TTITLE9=You Are My Sunshine
TTITLE10=Take These Chains From My Heart
TTITLE11=Hide No Hiar
TTITLE12=Let's Go Get Stoned
TTITLE13=You Don't Know Me
TTITLE14=Hallelujah, I Love Her So (Live)
TTITLE15=Crying Time
TTITLE16=A Fool For You
TTITLE17=One Mint Julep
TTITLE18=Here We Go Again
TTITLE19=Yesterday
TTITLE20=America The Beautiful
EXTD=
EXTT0=
EXTT1=
EXTT2=
EXTT3=
EXTT4=
EXTT5=
EXTT6=
EXTT7=
EXTT8=
EXTT9=
EXTT10=
EXTT11=
EXTT12=
EXTT13=
EXTT14=
EXTT15=
EXTT16=
EXTT17=
EXTT18=
EXTT19=
EXTT20=
PLAYORDER=
